<svg width="28" height="28" viewBox="0 0 28 28" fill="none" xmlns="http://www.w3.org/2000/svg">
<path d="M6.125 10.5V17.5C6.125 17.7321 6.03281 17.9546 5.86872 18.1187C5.70462 18.2828 5.48206 18.375 5.25 18.375C5.01794 18.375 4.79538 18.2828 4.63128 18.1187C4.46719 17.9546 4.375 17.7321 4.375 17.5V10.5C4.375 10.2679 4.46719 10.0454 4.63128 9.88128C4.79538 9.71719 5.01794 9.625 5.25 9.625C5.48206 9.625 5.70462 9.71719 5.86872 9.88128C6.03281 10.0454 6.125 10.2679 6.125 10.5ZM9.625 2.625C9.39294 2.625 9.17038 2.71719 9.00628 2.88128C8.84219 3.04538 8.75 3.26794 8.75 3.5V24.5C8.75 24.7321 8.84219 24.9546 9.00628 25.1187C9.17038 25.2828 9.39294 25.375 9.625 25.375C9.85706 25.375 10.0796 25.2828 10.2437 25.1187C10.4078 24.9546 10.5 24.7321 10.5 24.5V3.5C10.5 3.26794 10.4078 3.04538 10.2437 2.88128C10.0796 2.71719 9.85706 2.625 9.625 2.625ZM14 6.125C13.7679 6.125 13.5454 6.21719 13.3813 6.38128C13.2172 6.54538 13.125 6.76794 13.125 7V21C13.125 21.2321 13.2172 21.4546 13.3813 21.6187C13.5454 21.7828 13.7679 21.875 14 21.875C14.2321 21.875 14.4546 21.7828 14.6187 21.6187C14.7828 21.4546 14.875 21.2321 14.875 21V7C14.875 6.76794 14.7828 6.54538 14.6187 6.38128C14.4546 6.21719 14.2321 6.125 14 6.125ZM18.375 9.625C18.1429 9.625 17.9204 9.71719 17.7563 9.88128C17.5922 10.0454 17.5 10.2679 17.5 10.5V17.5C17.5 17.7321 17.5922 17.9546 17.7563 18.1187C17.9204 18.2828 18.1429 18.375 18.375 18.375C18.6071 18.375 18.8296 18.2828 18.9937 18.1187C19.1578 17.9546 19.25 17.7321 19.25 17.5V10.5C19.25 10.2679 19.1578 10.0454 18.9937 9.88128C18.8296 9.71719 18.6071 9.625 18.375 9.625ZM22.75 7.875C22.5179 7.875 22.2954 7.96719 22.1313 8.13128C21.9672 8.29538 21.875 8.51794 21.875 8.75V19.25C21.875 19.4821 21.9672 19.7046 22.1313 19.8687C22.2954 20.0328 22.5179 20.125 22.75 20.125C22.9821 20.125 23.2046 20.0328 23.3687 19.8687C23.5328 19.7046 23.625 19.4821 23.625 19.25V8.75C23.625 8.51794 23.5328 8.29538 23.3687 8.13128C23.2046 7.96719 22.9821 7.875 22.75 7.875Z" fill="#1D1D1D"/>
</svg>
